<?xml version="1.0" encoding="iso-8859-1"?>
<!-- Uploaded to: SVG Repo, www.svgrepo.com, Generator: SVG Repo Mixer Tools -->
<!DOCTYPE svg PUBLIC "-//W3C//DTD SVG 1.1//EN" "http://www.w3.org/Graphics/SVG/1.1/DTD/svg11.dtd">
<svg fill="#000000" height="800px" width="800px" version="1.1" id="Capa_1" xmlns="http://www.w3.org/2000/svg" xmlns:xlink="http://www.w3.org/1999/xlink" 
	 viewBox="0 0 472.777 472.777" xml:space="preserve">
<path d="M381.07,391.033h-59.838l-16.446-40.368c10.026-6.618,18.775-14.845,26.078-24.551
	c13.868-18.437,21.198-40.371,21.198-63.431c0-27.712-10.647-53.893-29.979-73.72l-82.879-85.018l7.202-27.113
	c1.417-5.337-1.76-10.812-7.097-12.23l-2.04-0.542l12.375-43.32c0.737-2.581,0.406-5.351-0.919-7.685
	c-1.325-2.334-3.533-4.038-6.127-4.727l-30.07-7.991c-5.269-1.399-10.686,1.676-12.184,6.917L187.866,50.93l-3.153-0.838
	c-2.563-0.681-5.292-0.316-7.586,1.015s-3.966,3.519-4.647,6.083l-40.042,150.75c-0.681,2.563-0.315,5.292,1.016,7.586
	c1.332,2.294,3.52,3.965,6.083,4.646l3.068,0.815l-8.744,30.6c-0.737,2.581-0.406,5.351,0.919,7.685
	c1.326,2.334,3.534,4.038,6.128,4.728l30.071,7.991c0.86,0.229,1.724,0.338,2.574,0.338c4.358,0,8.357-2.87,9.609-7.255
	l8.846-30.966l2.125,0.564c0.86,0.229,1.723,0.337,2.573,0.337c4.423,0,8.469-2.958,9.658-7.435l4.184-15.747
	c1.964,0.347,3.981,0.539,6.043,0.539c8.874,0,16.975-3.357,23.112-8.862l0.971,1.066c13.471,14.76,17.461,35.554,10.412,54.264
	c-7.711,20.458-27.568,34.204-49.412,34.204c-3.009,0-6.044-0.258-9.009-0.766l-69.543-12.002c-2.722-0.469-5.52,0.208-7.725,1.873
	c-2.206,1.665-3.624,4.168-3.918,6.916l-4.163,38.855c-0.532,4.966,2.682,9.564,7.529,10.77l106.168,26.41
	c4.49,1.114,9.039,1.925,13.605,2.446v23.494H91.708c-5.523,0-10,4.477-10,10v35.994c0,19.713,16.038,35.75,35.75,35.75h23.479
	c12.486,0,24.232-6.651,30.657-17.359c2.83-4.717,8.005-7.647,13.506-7.647h102.578c5.501,0,10.676,2.93,13.506,7.647
	c6.424,10.708,18.171,17.359,30.657,17.359h23.479c19.712,0,35.75-16.038,35.75-35.75v-35.994
	C391.07,395.51,386.593,391.033,381.07,391.033z M216.878,22.188l10.738,2.854l-9.679,33.881l-10.738-2.854L216.878,22.188z
	 M166.626,250.14l-10.738-2.854l6.048-21.166l10.737,2.851L166.626,250.14z M189.601,212.774l-35.267-9.365L189.242,71.99
	l35.268,9.373l-16.694,62.836c-14.87,3.896-25.873,17.445-25.873,33.519c0,9.674,3.99,18.43,10.405,24.721L189.601,212.774z
	 M216.59,192.365c-8.077,0-14.647-6.571-14.647-14.647s6.571-14.647,14.647-14.647c8.076,0,14.647,6.571,14.647,14.647
	S224.666,192.365,216.59,192.365z M225.834,345.683l-97.705-24.305l2.099-19.586l59.05,10.191c4.089,0.7,8.26,1.054,12.396,1.054
	c30.119,0,57.497-18.948,68.127-47.152c9.716-25.79,4.215-54.452-14.35-74.793l-5.104-5.601c0.576-2.501,0.89-5.1,0.89-7.773
	c0-15.007-9.593-27.812-22.967-32.616l4.952-18.641l74.54,76.464c15.67,16.071,24.3,37.293,24.3,59.758
	c0,18.689-5.941,36.466-17.181,51.407c-5.099,6.777-11.086,12.644-17.836,17.575l-2.101-5.158
	c-4.826-11.847-16.212-19.502-29.006-19.502c-17.271,0-31.321,14.05-31.321,31.321v9.056
	C231.672,346.966,228.738,346.404,225.834,345.683z M254.617,338.325c0-6.242,5.079-11.321,11.321-11.321
	c4.625,0,8.74,2.767,10.484,7.048l23.214,56.98h-45.019V338.325z M371.07,437.027c0,8.685-7.065,15.75-15.75,15.75h-23.479
	c-5.5,0-10.676-2.931-13.506-7.648c-6.423-10.707-18.17-17.358-30.657-17.358H185.1c-12.487,0-24.233,6.651-30.657,17.358
	c-2.83,4.717-8.005,7.648-13.506,7.648h-23.479c-8.685,0-15.75-7.065-15.75-15.75v-25.994H371.07V437.027z"/>
</svg>